<?xml version="1.0" encoding="UTF-8"?>
<!DOCTYPE svg PUBLIC "-//W3C//DTD SVG 1.1//EN" "http://www.w3.org/Graphics/SVG/1.1/DTD/svg11.dtd">
<svg stroke-width="0.3" stroke-dasharray="none" fill="black" stroke="black" font-family="Arial, sans-serif" font-size="10pt" font-weight="normal" font-style="normal" width="130" height="200" viewBox="0 0 130 200" style="width: 130px; height: 200px;" xmlns="http://www.w3.org/2000/svg"><g class="vf-stave" id="vf-auto1001" stroke-width="1" fill="#999999" stroke="#999999"><path fill="none" d="M10 50L510 50"></path><path fill="none" d="M10 60L510 60"></path><path fill="none" d="M10 70L510 70"></path><path fill="none" d="M10 80L510 80"></path><path fill="none" d="M10 90L510 90"></path></g><g class="vf-stavebarline" id="vf-auto1002"></g><g class="vf-stavebarline" id="vf-auto1003"><rect x="510" y="49.5" width="1" height="41" stroke="none"></rect></g><g class="vf-clef" id="vf-auto1004"><path stroke="none" d="M30.191 63.208C30.135 62.731,30.191 62.703,30.444 62.45C34.824 58.378,38.138 53.24,38.138 47.034C38.138 43.524,37.155 40.042,35.498 37.627C34.881 36.729,33.842 35.606,33.392 35.606C32.831 35.606,31.567 36.644,30.781 37.543C27.776 40.856,26.794 45.911,26.794 50.123C26.794 52.454,27.102 55.093,27.383 56.75C27.468 57.227,27.496 57.311,27.018 57.733C21.178 62.534,15 68.319,15 76.49C15 83.51,19.802 90.193,29.714 90.193C30.641 90.193,31.708 90.109,32.522 89.94C32.943 89.856,33.027 89.828,33.112 90.305C33.589 93.029,34.207 96.539,34.207 98.449C34.207 104.43,30.163 105.16,27.776 105.16C25.586 105.16,24.547 104.514,24.547 103.98C24.547 103.7,24.912 103.587,25.839 103.278C27.102 102.913,28.535 101.846,28.535 99.488C28.535 97.269,27.131 95.36,24.66 95.36C21.964 95.36,20.335 97.522,20.335 100.021C20.335 102.632,21.908 106.62,28.029 106.62C30.725 106.62,35.976 105.384,35.976 98.533C35.976 96.202,35.246 92.383,34.824 89.856C34.74 89.379,34.768 89.435,35.33 89.182C39.43 87.554,42.125 84.128,42.125 79.551C42.125 74.384,38.334 69.807,32.382 69.807C31.343 69.807,31.343 69.807,31.202 69.077M34.01 41.867C35.33 41.867,36.425 42.962,36.425 45.181C36.425 49.674,32.578 53.324,29.405 56.104C29.124 56.357,28.956 56.3,28.872 55.767C28.703 54.728,28.619 53.352,28.619 52.06C28.619 45.742,31.539 41.867,34.01 41.867M29.602 69.414C29.714 70.172,29.714 70.144,28.984 70.369C25.446 71.576,23.115 74.777,23.115 78.231C23.115 81.853,25.025 84.437,27.776 85.391C28.113 85.504,28.591 85.616,28.872 85.616C29.18 85.616,29.349 85.419,29.349 85.167C29.349 84.886,29.04 84.774,28.759 84.661C27.046 83.931,25.839 82.19,25.839 80.337C25.839 78.006,27.411 76.293,29.882 75.591C30.528 75.423,30.612 75.479,30.697 75.928L32.718 87.975C32.803 88.424,32.747 88.424,32.157 88.536C31.511 88.649,30.697 88.733,29.882 88.733C22.806 88.733,18.229 84.802,18.229 79.186C18.229 76.799,18.65 73.598,21.992 69.807C24.435 67.111,26.288 65.595,28.17 64.079C28.591 63.742,28.675 63.798,28.759 64.219M32.382 75.844C32.297 75.339,32.353 75.226,32.831 75.283C36.116 75.563,38.812 78.315,38.812 81.853C38.812 84.409,37.267 86.458,35.021 87.61C34.544 87.834,34.459 87.834,34.375 87.357"></path></g><g class="vf-keysignature" id="vf-auto1005"><path stroke="none" d="M61.701 45.226C61.981 45.114,62.206 44.777,62.206 44.552L62.206 41.66C62.206 41.464,62.066 41.351,61.897 41.351C61.841 41.351,61.785 41.351,61.701 41.379C61.701 41.379,60.886 41.716,60.69 41.744C60.409 41.744,60.128 41.548,60.128 41.239L60.128 36.297C60.128 36.044,59.875 35.848,59.566 35.848C59.173 35.848,58.921 36.044,58.921 36.297L58.921 41.548C58.864 41.941,58.752 42.475,58.387 42.727C57.91 43.008,56.534 43.57,55.832 43.738C55.495 43.738,55.354 43.261,55.354 42.924L55.354 38.066C55.354 37.841,55.074 37.617,54.793 37.617C54.4 37.617,54.147 37.841,54.147 38.066L54.147 43.542C54.147 44.103,53.894 44.496,53.67 44.609C53.417 44.749,52.603 45.058,52.603 45.058C52.322 45.142,52.125 45.479,52.125 45.704L52.125 48.596C52.125 48.821,52.238 48.961,52.49 48.961L52.575 48.905C52.603 48.905,53.22 48.652,53.529 48.512L53.585 48.456C53.894 48.456,54.147 48.877,54.147 49.186L54.147 53.201C54.147 53.65,53.95 54.015,53.698 54.128C53.473 54.212,52.603 54.577,52.603 54.577C52.322 54.661,52.125 54.97,52.125 55.223L52.125 58.087C52.125 58.34,52.238 58.452,52.49 58.452L52.575 58.424C52.603 58.424,53.164 58.171,53.529 58.059C53.585 58.003,53.614 58.003,53.67 58.003C53.95 58.003,54.147 58.452,54.147 58.649L54.147 63.619C54.147 63.872,54.4 64.068,54.681 64.068C55.074 64.068,55.354 63.872,55.354 63.619L55.354 58.003C55.354 57.469,55.551 57.188,55.776 57.104L58.219 56.093C58.219 56.093,58.275 56.093,58.275 56.093L58.359 56.065C58.724 56.065,58.921 56.543,58.921 56.795L58.921 61.85C58.921 62.102,59.173 62.299,59.454 62.299C59.875 62.299,60.128 62.102,60.128 61.85L60.128 56.093C60.128 55.784,60.297 55.307,60.577 55.167C60.858 55.054,61.701 54.717,61.701 54.717C61.981 54.605,62.206 54.296,62.206 54.044L62.206 51.179C62.206 50.983,62.066 50.842,61.897 50.842C61.841 50.842,61.785 50.842,61.701 50.899L60.662 51.292C60.409 51.292,60.128 51.039,60.128 50.562L60.128 46.799C60.128 46.518,60.325 45.76,60.662 45.62M58.921 51.825C58.668 52.64,56.787 53.426,55.832 53.426C55.607 53.426,55.411 53.37,55.354 53.229C55.27 53.061,55.242 52.19,55.242 51.207C55.242 49.972,55.27 48.54,55.354 48.231C55.439 47.529,57.292 46.687,58.303 46.687C58.584 46.687,58.836 46.771,58.921 46.939C59.005 47.136,59.089 48.147,59.089 49.242C59.089 50.337,59.005 51.46,58.921 51.825"></path><path stroke="none" d="M72.781 60.226C73.062 60.114,73.287 59.777,73.287 59.552L73.287 56.66C73.287 56.464,73.146 56.351,72.978 56.351C72.922 56.351,72.866 56.351,72.781 56.379C72.781 56.379,71.967 56.716,71.77 56.744C71.49 56.744,71.209 56.548,71.209 56.239L71.209 51.297C71.209 51.044,70.956 50.848,70.647 50.848C70.254 50.848,70.001 51.044,70.001 51.297L70.001 56.548C69.945 56.941,69.833 57.475,69.468 57.727C68.99 58.008,67.615 58.57,66.913 58.738C66.576 58.738,66.435 58.261,66.435 57.924L66.435 53.066C66.435 52.841,66.154 52.617,65.874 52.617C65.48 52.617,65.228 52.841,65.228 53.066L65.228 58.542C65.228 59.103,64.975 59.496,64.75 59.609C64.498 59.749,63.683 60.058,63.683 60.058C63.403 60.142,63.206 60.479,63.206 60.704L63.206 63.596C63.206 63.821,63.318 63.961,63.571 63.961L63.655 63.905C63.683 63.905,64.301 63.652,64.61 63.512L64.666 63.456C64.975 63.456,65.228 63.877,65.228 64.186L65.228 68.201C65.228 68.65,65.031 69.015,64.778 69.128C64.554 69.212,63.683 69.577,63.683 69.577C63.403 69.661,63.206 69.97,63.206 70.223L63.206 73.087C63.206 73.34,63.318 73.452,63.571 73.452L63.655 73.424C63.683 73.424,64.245 73.171,64.61 73.059C64.666 73.003,64.694 73.003,64.75 73.003C65.031 73.003,65.228 73.452,65.228 73.649L65.228 78.619C65.228 78.872,65.48 79.068,65.761 79.068C66.154 79.068,66.435 78.872,66.435 78.619L66.435 73.003C66.435 72.469,66.632 72.188,66.856 72.104L69.299 71.093C69.299 71.093,69.356 71.093,69.356 71.093L69.44 71.065C69.805 71.065,70.001 71.543,70.001 71.795L70.001 76.85C70.001 77.102,70.254 77.299,70.535 77.299C70.956 77.299,71.209 77.102,71.209 76.85L71.209 71.093C71.209 70.784,71.377 70.307,71.658 70.167C71.939 70.054,72.781 69.717,72.781 69.717C73.062 69.605,73.287 69.296,73.287 69.044L73.287 66.179C73.287 65.983,73.146 65.842,72.978 65.842C72.922 65.842,72.866 65.842,72.781 65.899L71.742 66.292C71.49 66.292,71.209 66.039,71.209 65.562L71.209 61.799C71.209 61.518,71.405 60.76,71.742 60.62M70.001 66.825C69.749 67.64,67.867 68.426,66.913 68.426C66.688 68.426,66.491 68.37,66.435 68.229C66.351 68.061,66.323 67.19,66.323 66.207C66.323 64.972,66.351 63.54,66.435 63.231C66.519 62.529,68.373 61.687,69.384 61.687C69.664 61.687,69.917 61.771,70.001 61.939C70.086 62.136,70.17 63.147,70.17 64.242C70.17 65.337,70.086 66.46,70.001 66.825"></path><path stroke="none" d="M83.862 40.226C84.143 40.114,84.367 39.777,84.367 39.552L84.367 36.66C84.367 36.464,84.227 36.351,84.059 36.351C84.002 36.351,83.946 36.351,83.862 36.379C83.862 36.379,83.048 36.716,82.851 36.744C82.57 36.744,82.29 36.548,82.29 36.239L82.29 31.297C82.29 31.044,82.037 30.848,81.728 30.848C81.335 30.848,81.082 31.044,81.082 31.297L81.082 36.548C81.026 36.941,80.914 37.475,80.549 37.727C80.071 38.008,78.695 38.57,77.993 38.738C77.656 38.738,77.516 38.261,77.516 37.924L77.516 33.066C77.516 32.841,77.235 32.617,76.954 32.617C76.561 32.617,76.308 32.841,76.308 33.066L76.308 38.542C76.308 39.103,76.056 39.496,75.831 39.609C75.578 39.749,74.764 40.058,74.764 40.058C74.483 40.142,74.287 40.479,74.287 40.704L74.287 43.596C74.287 43.821,74.399 43.961,74.652 43.961L74.736 43.905C74.764 43.905,75.382 43.652,75.691 43.512L75.747 43.456C76.056 43.456,76.308 43.877,76.308 44.186L76.308 48.201C76.308 48.65,76.112 49.015,75.859 49.128C75.635 49.212,74.764 49.577,74.764 49.577C74.483 49.661,74.287 49.97,74.287 50.223L74.287 53.087C74.287 53.34,74.399 53.452,74.652 53.452L74.736 53.424C74.764 53.424,75.326 53.171,75.691 53.059C75.747 53.003,75.775 53.003,75.831 53.003C76.112 53.003,76.308 53.452,76.308 53.649L76.308 58.619C76.308 58.872,76.561 59.068,76.842 59.068C77.235 59.068,77.516 58.872,77.516 58.619L77.516 53.003C77.516 52.469,77.712 52.188,77.937 52.104L80.38 51.093C80.38 51.093,80.436 51.093,80.436 51.093L80.52 51.065C80.886 51.065,81.082 51.543,81.082 51.795L81.082 56.85C81.082 57.102,81.335 57.299,81.616 57.299C82.037 57.299,82.29 57.102,82.29 56.85L82.29 51.093C82.29 50.784,82.458 50.307,82.739 50.167C83.02 50.054,83.862 49.717,83.862 49.717C84.143 49.605,84.367 49.296,84.367 49.044L84.367 46.179C84.367 45.983,84.227 45.842,84.059 45.842C84.002 45.842,83.946 45.842,83.862 45.899L82.823 46.292C82.57 46.292,82.29 46.039,82.29 45.562L82.29 41.799C82.29 41.518,82.486 40.76,82.823 40.62M81.082 46.825C80.829 47.64,78.948 48.426,77.993 48.426C77.769 48.426,77.572 48.37,77.516 48.229C77.432 48.061,77.404 47.19,77.404 46.207C77.404 44.972,77.432 43.54,77.516 43.231C77.6 42.529,79.453 41.687,80.464 41.687C80.745 41.687,80.998 41.771,81.082 41.939C81.166 42.136,81.251 43.147,81.251 44.242C81.251 45.337,81.166 46.46,81.082 46.825"></path><path stroke="none" d="M94.943 55.226C95.224 55.114,95.448 54.777,95.448 54.552L95.448 51.66C95.448 51.464,95.308 51.351,95.139 51.351C95.083 51.351,95.027 51.351,94.943 51.379C94.943 51.379,94.128 51.716,93.932 51.744C93.651 51.744,93.37 51.548,93.37 51.239L93.37 46.297C93.37 46.044,93.118 45.848,92.809 45.848C92.416 45.848,92.163 46.044,92.163 46.297L92.163 51.548C92.107 51.941,91.994 52.475,91.629 52.727C91.152 53.008,89.776 53.57,89.074 53.738C88.737 53.738,88.597 53.261,88.597 52.924L88.597 48.066C88.597 47.841,88.316 47.617,88.035 47.617C87.642 47.617,87.389 47.841,87.389 48.066L87.389 53.542C87.389 54.103,87.136 54.496,86.912 54.609C86.659 54.749,85.845 55.058,85.845 55.058C85.564 55.142,85.367 55.479,85.367 55.704L85.367 58.596C85.367 58.821,85.48 58.961,85.732 58.961L85.817 58.905C85.845 58.905,86.463 58.652,86.771 58.512L86.828 58.456C87.136 58.456,87.389 58.877,87.389 59.186L87.389 63.201C87.389 63.65,87.193 64.015,86.94 64.128C86.715 64.212,85.845 64.577,85.845 64.577C85.564 64.661,85.367 64.97,85.367 65.223L85.367 68.087C85.367 68.34,85.48 68.452,85.732 68.452L85.817 68.424C85.845 68.424,86.406 68.171,86.771 68.059C86.828 68.003,86.856 68.003,86.912 68.003C87.193 68.003,87.389 68.452,87.389 68.649L87.389 73.619C87.389 73.872,87.642 74.068,87.923 74.068C88.316 74.068,88.597 73.872,88.597 73.619L88.597 68.003C88.597 67.469,88.793 67.188,89.018 67.104L91.461 66.093C91.461 66.093,91.517 66.093,91.517 66.093L91.601 66.065C91.966 66.065,92.163 66.543,92.163 66.795L92.163 71.85C92.163 72.102,92.416 72.299,92.696 72.299C93.118 72.299,93.37 72.102,93.37 71.85L93.37 66.093C93.37 65.784,93.539 65.307,93.82 65.167C94.1 65.054,94.943 64.717,94.943 64.717C95.224 64.605,95.448 64.296,95.448 64.044L95.448 61.179C95.448 60.983,95.308 60.842,95.139 60.842C95.083 60.842,95.027 60.842,94.943 60.899L93.904 61.292C93.651 61.292,93.37 61.039,93.37 60.562L93.37 56.799C93.37 56.518,93.567 55.76,93.904 55.62M92.163 61.825C91.91 62.64,90.029 63.426,89.074 63.426C88.849 63.426,88.653 63.37,88.597 63.229C88.512 63.061,88.484 62.19,88.484 61.207C88.484 59.972,88.512 58.54,88.597 58.231C88.681 57.529,90.534 56.687,91.545 56.687C91.826 56.687,92.079 56.771,92.163 56.939C92.247 57.136,92.331 58.147,92.331 59.242C92.331 60.337,92.247 61.46,92.163 61.825"></path></g></svg>