<svg xmlns="http://www.w3.org/2000/svg" width="10.895" height="30.242" viewBox="0 0 10.895 30.242">
  <path id="Path_18" data-name="Path 18" d="M197.348,71.544a22.718,22.718,0,0,1,1.741,2.415,2.924,2.924,0,0,1,.253.562c0,.056,0,.14-.056.168-.056.169-.225.2-.421.2a4.406,4.406,0,0,1-.646-.112h-.169l-.337-.113a3.664,3.664,0,0,0-3.481,3.875c0,2.022,1.741,3.988,4.689,6.262a1.811,1.811,0,0,0,1.067.365c.281,0,.562-.084.618-.253a1.232,1.232,0,0,0,.056-.28,1.412,1.412,0,0,0-.646-.955c-.505,0-.955-1.1-1.039-1.46a3.4,3.4,0,0,1-.168-1.067c0-1.657.842-2.949,2.555-2.949a10.252,10.252,0,0,1,3.2.7l.028.028a.9.9,0,0,0,.337.057c.112,0,.2-.057.2-.169a7.11,7.11,0,0,0-1.489-2.3c-1.544-1.854-2.808-3.37-2.808-5.616v-.141l.057-.281v-.112c.14-2.359,1.6-4.3,2.667-5.953a1.143,1.143,0,0,0,.141-.59,2.445,2.445,0,0,0-.141-.786s-5.981-7.1-6.683-7.806a1.066,1.066,0,0,0-.73-.309.8.8,0,0,0-.814.842,1.476,1.476,0,0,0,.168.646c.169.45,2.471,2.5,2.471,5.42a7.537,7.537,0,0,1-2.415,5.138,1.687,1.687,0,0,0-.589,1.18,1.438,1.438,0,0,0,.421.954" transform="translate(-194.232 -54.921)" fill="#707070"/>
</svg>
