<?xml version="1.0" encoding="UTF-8"?>
<!DOCTYPE svg PUBLIC "-//W3C//DTD SVG 1.1//EN" "http://www.w3.org/Graphics/SVG/1.1/DTD/svg11.dtd">
<svg stroke-width="0.3" stroke-dasharray="none" fill="black" stroke="black" font-family="Arial, sans-serif" font-size="10pt" font-weight="normal" font-style="normal" width="130" height="140" viewBox="0 0 130 140" style="width: 130px; height: 140px;" xmlns="http://www.w3.org/2000/svg"><g class="vf-stave" id="vf-auto1001" stroke-width="1" fill="#999999" stroke="#999999"><path fill="none" d="M10 50L510 50"></path><path fill="none" d="M10 60L510 60"></path><path fill="none" d="M10 70L510 70"></path><path fill="none" d="M10 80L510 80"></path><path fill="none" d="M10 90L510 90"></path></g><g class="vf-stavebarline" id="vf-auto1002"></g><g class="vf-stavebarline" id="vf-auto1003"><rect x="510" y="49.5" width="1" height="41" stroke="none"></rect></g><g class="vf-clef" id="vf-auto1004"><path stroke="none" d="M30.191 63.208C30.135 62.731,30.191 62.703,30.444 62.45C34.824 58.378,38.138 53.24,38.138 47.034C38.138 43.524,37.155 40.042,35.498 37.627C34.881 36.729,33.842 35.606,33.392 35.606C32.831 35.606,31.567 36.644,30.781 37.543C27.776 40.856,26.794 45.911,26.794 50.123C26.794 52.454,27.102 55.093,27.383 56.75C27.468 57.227,27.496 57.311,27.018 57.733C21.178 62.534,15 68.319,15 76.49C15 83.51,19.802 90.193,29.714 90.193C30.641 90.193,31.708 90.109,32.522 89.94C32.943 89.856,33.027 89.828,33.112 90.305C33.589 93.029,34.207 96.539,34.207 98.449C34.207 104.43,30.163 105.16,27.776 105.16C25.586 105.16,24.547 104.514,24.547 103.98C24.547 103.7,24.912 103.587,25.839 103.278C27.102 102.913,28.535 101.846,28.535 99.488C28.535 97.269,27.131 95.36,24.66 95.36C21.964 95.36,20.335 97.522,20.335 100.021C20.335 102.632,21.908 106.62,28.029 106.62C30.725 106.62,35.976 105.384,35.976 98.533C35.976 96.202,35.246 92.383,34.824 89.856C34.74 89.379,34.768 89.435,35.33 89.182C39.43 87.554,42.125 84.128,42.125 79.551C42.125 74.384,38.334 69.807,32.382 69.807C31.343 69.807,31.343 69.807,31.202 69.077M34.01 41.867C35.33 41.867,36.425 42.962,36.425 45.181C36.425 49.674,32.578 53.324,29.405 56.104C29.124 56.357,28.956 56.3,28.872 55.767C28.703 54.728,28.619 53.352,28.619 52.06C28.619 45.742,31.539 41.867,34.01 41.867M29.602 69.414C29.714 70.172,29.714 70.144,28.984 70.369C25.446 71.576,23.115 74.777,23.115 78.231C23.115 81.853,25.025 84.437,27.776 85.391C28.113 85.504,28.591 85.616,28.872 85.616C29.18 85.616,29.349 85.419,29.349 85.167C29.349 84.886,29.04 84.774,28.759 84.661C27.046 83.931,25.839 82.19,25.839 80.337C25.839 78.006,27.411 76.293,29.882 75.591C30.528 75.423,30.612 75.479,30.697 75.928L32.718 87.975C32.803 88.424,32.747 88.424,32.157 88.536C31.511 88.649,30.697 88.733,29.882 88.733C22.806 88.733,18.229 84.802,18.229 79.186C18.229 76.799,18.65 73.598,21.992 69.807C24.435 67.111,26.288 65.595,28.17 64.079C28.591 63.742,28.675 63.798,28.759 64.219M32.382 75.844C32.297 75.339,32.353 75.226,32.831 75.283C36.116 75.563,38.812 78.315,38.812 81.853C38.812 84.409,37.267 86.458,35.021 87.61C34.544 87.834,34.459 87.834,34.375 87.357"></path></g><g class="vf-keysignature" id="vf-auto1005"><path stroke="none" d="M52.603 76.88C52.743 77.048,52.855 77.076,52.968 77.076C53.108 77.076,53.22 76.992,53.22 76.992C54.428 76.318,55.411 75.223,56.422 74.521C60.016 72.022,61.251 69.551,61.251 67.697C61.251 65.395,59.482 63.935,57.629 63.822C56.927 63.822,55.972 64.131,55.411 64.496C55.158 64.693,54.709 65.058,54.512 65.058C54.428 65.058,54.4 65.058,54.316 65.03C54.035 64.918,53.866 64.609,53.866 64.328C53.894 63.457,54.147 53.742,54.147 52.927C54.147 52.478,53.782 52.253,53.389 52.253C52.799 52.253,52.153 52.647,52.125 53.377C52.125 53.377,52.294 76.458,52.603 76.88M54.035 73.285C54.035 73.285,53.894 70.842,53.894 69.242C53.894 68.596,53.95 68.091,53.979 67.95C54.259 67.136,55.888 65.956,56.815 65.956C57.994 65.956,58.471 67.304,58.471 68.315C58.471 70.477,56.618 72.668,54.877 73.763C54.709 73.847,54.596 73.875,54.484 73.875C54.119 73.875,54.035 73.482,54.035 73.285"></path><path stroke="none" d="M62.729 61.88C62.869 62.048,62.981 62.076,63.094 62.076C63.234 62.076,63.346 61.992,63.346 61.992C64.554 61.318,65.537 60.223,66.548 59.521C70.142 57.022,71.377 54.551,71.377 52.697C71.377 50.395,69.608 48.935,67.755 48.822C67.053 48.822,66.098 49.131,65.537 49.496C65.284 49.693,64.835 50.058,64.638 50.058C64.554 50.058,64.526 50.058,64.442 50.03C64.161 49.918,63.992 49.609,63.992 49.328C64.02 48.457,64.273 38.742,64.273 37.927C64.273 37.478,63.908 37.253,63.515 37.253C62.925 37.253,62.279 37.647,62.251 38.377C62.251 38.377,62.42 61.458,62.729 61.88M64.161 58.285C64.161 58.285,64.02 55.842,64.02 54.242C64.02 53.596,64.076 53.091,64.105 52.95C64.385 52.136,66.014 50.956,66.941 50.956C68.12 50.956,68.597 52.304,68.597 53.315C68.597 55.477,66.744 57.668,65.003 58.763C64.835 58.847,64.722 58.875,64.61 58.875C64.245 58.875,64.161 58.482,64.161 58.285"></path><path stroke="none" d="M72.855 81.88C72.995 82.048,73.107 82.076,73.22 82.076C73.36 82.076,73.472 81.992,73.472 81.992C74.68 81.318,75.663 80.223,76.674 79.521C80.268 77.022,81.503 74.551,81.503 72.697C81.503 70.395,79.734 68.935,77.881 68.822C77.179 68.822,76.224 69.131,75.663 69.496C75.41 69.693,74.961 70.058,74.764 70.058C74.68 70.058,74.652 70.058,74.568 70.03C74.287 69.918,74.118 69.609,74.118 69.328C74.146 68.457,74.399 58.742,74.399 57.927C74.399 57.478,74.034 57.253,73.641 57.253C73.051 57.253,72.405 57.647,72.377 58.377C72.377 58.377,72.546 81.458,72.855 81.88M74.287 78.285C74.287 78.285,74.146 75.842,74.146 74.242C74.146 73.596,74.202 73.091,74.231 72.95C74.511 72.136,76.14 70.956,77.067 70.956C78.246 70.956,78.723 72.304,78.723 73.315C78.723 75.477,76.87 77.668,75.129 78.763C74.961 78.847,74.848 78.875,74.736 78.875C74.371 78.875,74.287 78.482,74.287 78.285"></path></g></svg>